<svg width="266" height="162" viewBox="0 0 1065 648" xmlns="http://www.w3.org/2000/svg"><title>Speedup logo</title><defs><filter x="-50%" y="-50%" width="200%" height="200%" filterUnits="objectBoundingBox" id="a"><feGaussianBlur stdDeviation="8.423" in="SourceGraphic" result="blur"/></filter><filter x="-50%" y="-50%" width="200%" height="200%" filterUnits="objectBoundingBox" id="b"><feOffset in="SourceAlpha" result="shadowOffsetOuter1"/><feGaussianBlur stdDeviation=".5" in="shadowOffsetOuter1" result="shadowBlurOuter1"/><feColorMatrix values="0 0 0 0 0 0 0 0 0 0 0 0 0 0 0 0 0 0 0.7 0" in="shadowBlurOuter1" result="shadowMatrixOuter1"/><feMerge><feMergeNode in="shadowMatrixOuter1"/><feMergeNode in="SourceGraphic"/></feMerge></filter></defs><g fill="none"><path d="M959 510.869l-211.591-1.322c-73.907 16.89-140.698 31.773-140.698 31.773l-122.529 24.954-246.609 42.281s-93.1 13.036-122.529 15.374c-29.429 2.339-53.296.368-54.044-1.343.393-2.347 29.282-18.548 85.127-34.898 55.845-16.35 173.861-52.469 173.861-52.469l.73-.344c8.046-4.271 32.846-17.144 59.425-27.996l4.982-2.347s11.863-8.283 141.23-32.762c28.852-5.459 56.986-10.86 83.287-15.956l131.709-79.077 24.466-2.736 5.215 50.014c4.967.216 56.147 3.52 66.244 48.09 4.713 1.595 63.091 21.117 120.724 29.308v-17.417s10.84-7.996 19.157-7.996 62.843 2.533 62.843 2.533l-.002.618.611-.151s1.67 42.105 1.349 48.863c0-1.987-21.201 9.594-39.834 10.137l-.128-.013.003.013c-41.247-2.704-43.083-5.926-42.997-6.591l-.003.001v-20.541z" id="Path-2" fill="#C0C0C0" filter="url(#a)"/><path d="M755.141 127.07s68.086 23.055 60.273 122.109c128.203-26.383 198.734-37.602 198.734-37.602l-104.188-25.578 47.922-29.359-72.883-10.352 28.531-55.656-77.32 18.086 44.352-91.758-125.422 110.109z" fill="#FDFF00"/><path d="M572.238 201.305l135.52-156.98 24.496-5.285 6.191 114.562-166.207 47.703z" fill="#C7EBFB"/><path d="M81.363 521.191c-29.42 4.504-53.28.709-54.027-2.586.393-4.52 29.273-35.723 85.102-67.211 55.828-31.488 173.809-101.051 173.809-101.051l65.117-59.102s11.859-15.953 141.188-63.098c129.328-47.145 244.215-92 244.215-92s68.336 2.938 68.336 123.961c-98.379 44.531-232.219 101.988-232.219 101.988l-122.492 48.059-246.535 81.43s-93.072 25.105-122.492 29.609z" fill="#03A8DE"/><path d="M712.844 300.406l36.879-52.641 53.25-20.094s88.328 58.516 157.309 63.57c-5.285 10.574-14.055 11.984-14.055 11.984l-233.383-2.82z" fill="#C7EBFB"/><path d="M284.099 351.372s19.204-7.963 30.87 18.479c55.57-17.625 86.129-28.082 86.129-28.082s-20.371-53.699-53.25-47.941c-33.008 25.496-63.749 57.544-63.749 57.544z" fill="#C7EBFB" filter="url(#b)"/><path d="M924.417 288.52v-36.954s10.798-15.393 19.083-15.393c8.285 0 62.601 4.877 62.601 4.877l-.064 49.026-81.619-1.557z" fill="#C7EBFB"/><path d="M924.636 341.917s-3.312 7.064 43.139 12.881c-2.901-28.67-1.602-46.041-1.602-46.041l-41.536 33.16z" fill="#C7EBFB"/><path d="M924.559 278.566v63.479s6.234-3.462 13.455-1.352c10.961 8.227 19.963 12.029 29.869 14.014 18.719-1.043 40.018-23.295 40.018-19.477.322-12.984-1.355-93.883-1.355-93.883l-29.592 13.982s-24.113 13.514-36.039 23.207c-7.219 5.521-16.355.029-16.355.029z" fill="#03A8DE"/></g></svg>
